<?xml version="1.0" standalone="no"?>
<!DOCTYPE svg PUBLIC "-//W3C//DTD SVG 20010904//EN"
 "http://www.w3.org/TR/2001/REC-SVG-20010904/DTD/svg10.dtd">
<svg version="1.0" xmlns="http://www.w3.org/2000/svg"
 width="300.000000pt" height="169.000000pt" viewBox="0 0 300.000000 169.000000"
 preserveAspectRatio="xMidYMid meet">

<g transform="translate(0.000000,169.000000) scale(0.100000,-0.100000)"
fill="#000000" stroke="none">
<path fill="#FFFFFF" d="M255 1602 c-22 -10 -55 -31 -73 -47 -40 -33 -85 -108 -80 -132 3 -13
10 -4 24 27 45 99 119 150 219 150 67 0 118 -20 163 -63 58 -55 75 -100 82
-217 3 -58 5 -106 4 -108 -1 -2 -12 13 -24 33 -55 88 -196 119 -291 63 -47
-28 -76 -55 -67 -64 3 -2 20 9 37 25 42 39 91 54 162 49 47 -3 66 -10 96 -34
83 -68 77 -29 83 -547 5 -444 6 -464 26 -508 47 -100 130 -154 239 -154 59 0
78 5 118 28 51 30 116 109 117 142 0 12 -13 -2 -33 -35 -80 -135 -255 -162
-366 -57 -55 52 -81 119 -80 207 0 50 3 68 9 55 12 -31 71 -82 112 -99 75 -32
167 -15 229 41 53 48 42 55 -13 9 -74 -64 -187 -66 -261 -5 -74 61 -71 39 -77
574 -6 534 -4 515 -77 596 -49 54 -104 81 -178 86 -45 3 -70 -1 -100 -15z"/>
<path fill="#FFFFFF" d="M1240 1605 c-25 -8 -65 -31 -88 -51 -44 -38 -99 -129 -83 -139 5 -3
14 10 20 28 17 51 70 107 125 133 124 58 260 4 320 -126 20 -44 21 -64 26
-615 5 -562 5 -571 27 -611 26 -48 92 -111 139 -130 115 -48 259 9 320 128 8
16 14 34 12 40 -2 6 -15 -11 -29 -38 -61 -118 -201 -164 -317 -105 -42 22 -97
78 -115 120 -9 18 -14 190 -18 591 -6 619 -4 602 -68 686 -63 83 -175 120
-271 89z"/>
<path fill="#FFFFFF" d="M2060 1604 c-57 -25 -99 -62 -130 -117 -31 -54 -35 -67 -22 -67 4 0
17 22 30 50 29 63 94 115 166 131 105 23 211 -32 262 -137 23 -46 28 -72 31
-157 l5 -102 -20 30 c-62 96 -178 131 -279 85 -46 -20 -99 -67 -89 -77 4 -4
21 8 40 26 72 70 192 74 270 9 50 -41 76 -98 75 -168 0 -54 0 -55 -15 -28 -23
44 -92 78 -154 78 -60 0 -134 -30 -151 -61 -13 -25 3 -24 26 1 9 10 37 27 61
36 81 31 171 -1 212 -74 22 -39 22 -47 22 -402 0 -232 4 -376 11 -399 40 -134
182 -215 310 -177 31 9 73 31 97 52 43 36 86 106 80 126 -3 7 -14 -8 -27 -33
-32 -62 -58 -88 -116 -115 -68 -32 -136 -32 -203 2 -88 44 -142 140 -142 255
l0 61 33 -43 c62 -82 169 -110 264 -69 50 21 102 64 91 76 -3 3 -18 -7 -32
-21 -63 -62 -173 -76 -250 -31 -69 41 -106 107 -106 190 l0 41 27 -34 c47 -60
147 -88 220 -60 31 11 83 57 83 73 0 5 -12 -2 -27 -16 -42 -39 -72 -51 -128
-51 -79 0 -129 33 -160 106 -13 31 -15 97 -15 420 0 428 -2 440 -67 517 -69
80 -194 113 -283 74z"/>
<path fill="#FFFFFF" d="M1877 1123 c-13 -12 -7 -33 8 -33 8 0 15 9 15 20 0 20 -11 26 -23 13z"/>
<path fill="#FFFFFF" d="M1024 1109 c-10 -17 13 -36 27 -22 12 12 4 33 -11 33 -5 0 -12 -5
-16 -11z"/>
<path fill="#FFFFFF" d="M1872 714 c4 -21 22 -23 26 -1 2 10 -3 17 -13 17 -10 0 -15 -6 -13
-16z"/>
<path fill="#FFFFFF" d="M1024 709 c-3 -6 -2 -15 4 -21 13 -13 32 -2 32 18 0 16 -26 19 -36 3z"/>
</g>
</svg>
